<mxfile host="app.diagrams.net" modified="2024-02-18T01:34:43.354Z" agent="Mozilla/5.0 (Windows NT 10.0; Win64; x64) AppleWebKit/537.36 (KHTML, like Gecko) Chrome/121.0.0.0 Safari/537.36" version="23.1.5" etag="rMStWHIPnNtJsNC-njfr" type="device">
  <diagram id="baQEzQwIRnJA_WaI0EcL" name="Page-1">
    <mxGraphModel dx="1195" dy="615" grid="1" gridSize="10" guides="1" tooltips="1" connect="1" arrows="1" fold="1" page="1" pageScale="1" pageWidth="827" pageHeight="1169" math="0" shadow="0">
      <root>
        <mxCell id="0" />
        <mxCell id="1" parent="0" />
        <mxCell id="KT2OtLvZjOxrzKnzefg_-3" value="" style="edgeStyle=orthogonalEdgeStyle;rounded=0;orthogonalLoop=1;jettySize=auto;html=1;" edge="1" parent="1" source="KT2OtLvZjOxrzKnzefg_-1" target="KT2OtLvZjOxrzKnzefg_-2">
          <mxGeometry relative="1" as="geometry" />
        </mxCell>
        <mxCell id="KT2OtLvZjOxrzKnzefg_-1" value="Start" style="triangle;whiteSpace=wrap;html=1;rotation=90;" vertex="1" parent="1">
          <mxGeometry x="180" y="135" width="60" height="80" as="geometry" />
        </mxCell>
        <mxCell id="KT2OtLvZjOxrzKnzefg_-5" value="" style="edgeStyle=orthogonalEdgeStyle;rounded=0;orthogonalLoop=1;jettySize=auto;html=1;" edge="1" parent="1" source="KT2OtLvZjOxrzKnzefg_-2" target="KT2OtLvZjOxrzKnzefg_-4">
          <mxGeometry relative="1" as="geometry" />
        </mxCell>
        <mxCell id="KT2OtLvZjOxrzKnzefg_-2" value="12V DC" style="rounded=0;whiteSpace=wrap;html=1;" vertex="1" parent="1">
          <mxGeometry x="150" y="235" width="120" height="60" as="geometry" />
        </mxCell>
        <mxCell id="KT2OtLvZjOxrzKnzefg_-7" value="" style="edgeStyle=orthogonalEdgeStyle;rounded=0;orthogonalLoop=1;jettySize=auto;html=1;" edge="1" parent="1" source="KT2OtLvZjOxrzKnzefg_-4" target="KT2OtLvZjOxrzKnzefg_-6">
          <mxGeometry relative="1" as="geometry" />
        </mxCell>
        <mxCell id="KT2OtLvZjOxrzKnzefg_-4" value="7805 (5V DC)" style="whiteSpace=wrap;html=1;rounded=0;" vertex="1" parent="1">
          <mxGeometry x="150" y="335" width="120" height="60" as="geometry" />
        </mxCell>
        <mxCell id="KT2OtLvZjOxrzKnzefg_-12" value="" style="edgeStyle=orthogonalEdgeStyle;rounded=0;orthogonalLoop=1;jettySize=auto;html=1;" edge="1" parent="1" source="KT2OtLvZjOxrzKnzefg_-6" target="KT2OtLvZjOxrzKnzefg_-11">
          <mxGeometry relative="1" as="geometry" />
        </mxCell>
        <mxCell id="KT2OtLvZjOxrzKnzefg_-22" style="edgeStyle=orthogonalEdgeStyle;rounded=0;orthogonalLoop=1;jettySize=auto;html=1;exitX=0;exitY=1;exitDx=0;exitDy=0;entryX=1;entryY=0.5;entryDx=0;entryDy=0;" edge="1" parent="1" source="KT2OtLvZjOxrzKnzefg_-6" target="KT2OtLvZjOxrzKnzefg_-21">
          <mxGeometry relative="1" as="geometry">
            <mxPoint x="300" y="495" as="targetPoint" />
            <Array as="points">
              <mxPoint x="340" y="385" />
              <mxPoint x="340" y="495" />
            </Array>
          </mxGeometry>
        </mxCell>
        <mxCell id="KT2OtLvZjOxrzKnzefg_-6" value="ESP32 Dev" style="rhombus;whiteSpace=wrap;html=1;" vertex="1" parent="1">
          <mxGeometry x="350" y="325" width="80" height="80" as="geometry" />
        </mxCell>
        <mxCell id="KT2OtLvZjOxrzKnzefg_-10" value="" style="edgeStyle=orthogonalEdgeStyle;rounded=0;orthogonalLoop=1;jettySize=auto;html=1;entryX=0.5;entryY=0;entryDx=0;entryDy=0;" edge="1" parent="1" source="KT2OtLvZjOxrzKnzefg_-8" target="KT2OtLvZjOxrzKnzefg_-6">
          <mxGeometry relative="1" as="geometry" />
        </mxCell>
        <mxCell id="KT2OtLvZjOxrzKnzefg_-8" value="LoRa RFM92" style="rounded=1;whiteSpace=wrap;html=1;" vertex="1" parent="1">
          <mxGeometry x="330" y="135" width="120" height="60" as="geometry" />
        </mxCell>
        <mxCell id="KT2OtLvZjOxrzKnzefg_-11" value="Data Storage&lt;br&gt;(SD Card)" style="shape=dataStorage;whiteSpace=wrap;html=1;fixedSize=1;" vertex="1" parent="1">
          <mxGeometry x="592" y="325" width="136" height="80" as="geometry" />
        </mxCell>
        <mxCell id="KT2OtLvZjOxrzKnzefg_-13" value="OLED" style="whiteSpace=wrap;html=1;aspect=fixed;" vertex="1" parent="1">
          <mxGeometry x="620" y="425" width="80" height="80" as="geometry" />
        </mxCell>
        <mxCell id="KT2OtLvZjOxrzKnzefg_-14" value="" style="endArrow=classic;html=1;rounded=0;exitX=1;exitY=1;exitDx=0;exitDy=0;entryX=0;entryY=0.5;entryDx=0;entryDy=0;" edge="1" parent="1" source="KT2OtLvZjOxrzKnzefg_-6" target="KT2OtLvZjOxrzKnzefg_-13">
          <mxGeometry width="50" height="50" relative="1" as="geometry">
            <mxPoint x="420" y="445" as="sourcePoint" />
            <mxPoint x="470" y="395" as="targetPoint" />
            <Array as="points">
              <mxPoint x="450" y="465" />
            </Array>
          </mxGeometry>
        </mxCell>
        <mxCell id="KT2OtLvZjOxrzKnzefg_-15" value="Real Time Clock" style="ellipse;whiteSpace=wrap;html=1;aspect=fixed;" vertex="1" parent="1">
          <mxGeometry x="350" y="505" width="80" height="80" as="geometry" />
        </mxCell>
        <mxCell id="KT2OtLvZjOxrzKnzefg_-16" style="edgeStyle=orthogonalEdgeStyle;rounded=0;orthogonalLoop=1;jettySize=auto;html=1;" edge="1" parent="1" source="KT2OtLvZjOxrzKnzefg_-15" target="KT2OtLvZjOxrzKnzefg_-6">
          <mxGeometry relative="1" as="geometry">
            <mxPoint x="390" y="415" as="targetPoint" />
          </mxGeometry>
        </mxCell>
        <mxCell id="KT2OtLvZjOxrzKnzefg_-17" value="GPRS Module&lt;br&gt;(GSM SIM800C)" style="rounded=1;whiteSpace=wrap;html=1;" vertex="1" parent="1">
          <mxGeometry x="600" y="230" width="120" height="60" as="geometry" />
        </mxCell>
        <mxCell id="KT2OtLvZjOxrzKnzefg_-20" value="" style="endArrow=classic;html=1;rounded=0;exitX=0;exitY=0.5;exitDx=0;exitDy=0;entryX=1;entryY=0;entryDx=0;entryDy=0;" edge="1" parent="1" source="KT2OtLvZjOxrzKnzefg_-17" target="KT2OtLvZjOxrzKnzefg_-6">
          <mxGeometry width="50" height="50" relative="1" as="geometry">
            <mxPoint x="320" y="285" as="sourcePoint" />
            <mxPoint x="370" y="235" as="targetPoint" />
            <Array as="points">
              <mxPoint x="490" y="260" />
            </Array>
          </mxGeometry>
        </mxCell>
        <mxCell id="KT2OtLvZjOxrzKnzefg_-21" value="Firebase" style="shape=parallelogram;perimeter=parallelogramPerimeter;whiteSpace=wrap;html=1;fixedSize=1;" vertex="1" parent="1">
          <mxGeometry x="150" y="465" width="120" height="60" as="geometry" />
        </mxCell>
      </root>
    </mxGraphModel>
  </diagram>
</mxfile>
